<?xml version="1.0" standalone="no"?><!-- Generator: Gravit.io --><svg xmlns="http://www.w3.org/2000/svg" xmlns:xlink="http://www.w3.org/1999/xlink" style="isolation:isolate" viewBox="0 0 2048 2048" width="2048" height="2048"><defs><clipPath id="_clipPath_hTmtjnENTsyFi3U2UUkqkQLKfMogXNTm"><rect width="2048" height="2048"/></clipPath></defs><g clip-path="url(#_clipPath_hTmtjnENTsyFi3U2UUkqkQLKfMogXNTm)"><g id="E_SDG-goals_icons-individual-rgb-04"><path d=" M 0 1024 L 0 2048 L 1024 2048 L 2048 2048 L 2048 1024 L 2048 0 L 1024 0 L 0 0 L 0 1024 Z  M 675.6 192.8 C 680.267 195.2 684.933 198.933 687.6 202.4 C 695.6 212.933 696 216 696 274.667 C 696 336.8 695.867 337.333 684.8 348.8 C 680.933 352.8 678.133 356.267 678.533 356.533 C 678.933 356.8 682.267 357.467 685.867 358 C 696.267 359.467 696 359.067 696 370.933 C 696 380.933 695.867 381.6 693.333 380.933 C 692 380.533 680 378.267 666.667 375.867 L 642.667 371.467 L 642.667 365.733 C 642.667 360.267 642.533 360 637.6 358.667 C 630.8 356.933 622.267 351.067 618 345.333 C 610.933 335.733 610.533 331.867 610.933 271.733 L 611.333 216.533 L 615.333 208.667 C 623.067 193.733 635.333 187.6 655.733 188.4 C 666.133 188.933 669.333 189.6 675.6 192.8 Z  M 741.333 257.333 C 741.333 329.867 741.6 332.533 747.733 335.867 C 751.2 337.733 759.333 337.733 762.8 336 C 769.2 332.533 769.333 331.467 769.333 258 L 769.333 189.333 L 782.667 189.333 L 796.133 189.333 L 795.6 260.933 C 795.2 338.667 795.2 338.267 787.6 348.267 C 780.933 356.933 772.533 360.533 757.867 361.067 C 736.8 361.867 725.067 356.4 717.6 342.133 L 714 335.333 L 713.6 262.267 L 713.2 189.333 L 727.333 189.333 L 741.333 189.333 L 741.333 257.333 Z  M 884.267 272.667 C 892.933 318.133 900 356.4 900 357.6 C 900 359.733 898.4 360 885.6 360 L 871.2 360 L 868.8 344.667 L 866.4 329.333 L 851.2 329.333 C 834 329.333 835.733 328 833.333 344 C 830.667 361.733 832.533 360 817.333 360 C 810 360 804 359.6 804 358.933 C 804 357.867 834.267 196.8 835.333 192.267 C 836 189.333 836.4 189.2 852.267 189.6 L 868.4 190 L 884.267 272.667 Z  M 941.067 262.933 L 941.333 336 L 958 336 L 974.667 336 L 974.667 348 L 974.667 360 L 943.333 360 L 912 360 L 912 275.6 C 912 229.067 912.4 190.667 912.933 190.133 C 913.467 189.6 919.867 189.467 927.2 189.6 L 940.667 190 L 941.067 262.933 Z  M 1016 274.667 L 1016 360 L 1002 360 L 988 360 L 988 274.667 L 988 189.333 L 1002 189.333 L 1016 189.333 L 1016 274.667 Z  M 1105.333 201.333 L 1105.333 213.333 L 1094 213.333 L 1082.667 213.333 L 1082.667 286.667 L 1082.667 360 L 1068 360 L 1053.333 360 L 1053.333 286.667 L 1053.333 213.333 L 1041.333 213.333 L 1029.333 213.333 L 1029.333 202.267 C 1029.333 196.133 1029.733 190.667 1030.267 190.267 C 1030.667 189.733 1047.867 189.333 1068.267 189.333 L 1105.333 189.333 L 1105.333 201.333 Z  M 1145.2 193.6 C 1145.867 196 1149.6 209.733 1153.333 224 C 1160 248.8 1162.533 256.667 1162.667 252.133 C 1162.667 251.067 1166.4 236.533 1170.8 219.733 L 1179.067 189.333 L 1192.133 189.333 C 1203.067 189.333 1205.333 189.733 1205.333 191.333 C 1205.333 192.533 1198.4 216.4 1190 244.4 L 1174.667 295.6 L 1174.667 327.733 L 1174.667 360 L 1160.667 360 L 1146.667 360 L 1146.667 328.533 L 1146.667 297.2 L 1131.467 246.933 C 1123.067 219.333 1115.867 195.067 1115.333 192.933 L 1114.4 189.333 L 1129.067 189.333 L 1143.733 189.333 L 1145.2 193.6 Z  M 958.667 430.4 C 972.533 437.333 977.333 448.4 977.333 473.6 L 977.333 488 L 964 488 L 950.667 488 L 950.667 472.8 C 950.667 459.6 950.267 457.2 948 454.267 C 941.867 446.533 927.6 449.2 924.4 458.667 C 922.4 464.667 922 558.4 924 565.467 C 926 572.667 929.733 575.333 937.6 575.333 C 943.2 575.333 944.667 574.8 947.467 571.6 C 950.533 568 950.667 567.067 950.667 547.867 L 950.667 528 L 964 528 L 977.333 528 L 977.333 546.667 C 977.333 568.667 975.867 576.533 970.267 585.067 C 956.533 605.467 915.867 604.533 902 583.333 C 894.8 572.267 894.533 569.067 894.933 509.733 C 895.333 456.267 895.333 455.2 898.4 448.667 C 903.867 436.667 913.867 428.933 926.533 426.667 C 936.8 424.8 950.4 426.4 958.667 430.4 Z  M 1273.467 428.533 C 1284.933 432.533 1294 442.267 1297.6 454.667 C 1300.133 463.333 1300.133 562.133 1297.6 570.667 C 1293.2 585.333 1283.867 594.4 1268.933 598.133 C 1246.8 603.867 1225.467 595.067 1217.067 576.667 C 1214 570.133 1214 569.067 1213.6 515.6 C 1213.333 470 1213.6 460 1215.2 454.133 C 1219.333 440.133 1229.733 430.267 1243.867 427.067 C 1252.267 425.2 1265.6 425.867 1273.467 428.533 Z  M 678.667 439.333 L 678.667 450.533 L 659.067 450.933 L 639.333 451.333 L 638.933 475.6 L 638.667 500 L 652.667 500 L 666.667 500 L 666.667 511.333 L 666.667 522.667 L 652.667 522.667 L 638.667 522.667 L 638.667 548.667 L 638.667 574.667 L 658.667 574.667 L 678.667 574.667 L 678.667 586 L 678.667 597.333 L 644.667 597.333 L 610.667 597.333 L 610.667 512.667 L 610.667 428 L 644.667 428 L 678.667 428 L 678.667 439.333 Z  M 759.067 432.4 C 767.867 436.8 773.2 443.6 776.533 454.667 C 779.733 465.333 779.733 560 776.533 570.667 C 773.467 581.067 768.133 588.133 759.733 592.667 L 752.667 596.667 L 723.067 597.067 L 693.333 597.467 L 693.333 512.667 L 693.333 427.867 L 722.4 428.267 C 751.067 428.667 751.467 428.667 759.067 432.4 Z  M 824 496.667 C 824 546.933 824.4 566.133 825.6 568.667 C 828.667 575.333 839.067 578.133 845.2 573.867 C 851.867 569.067 852 567.733 852 495.333 L 852 428 L 865.467 428 L 878.8 428 L 878.4 498.933 C 878 569.467 877.867 570 874.933 577.6 C 871.2 586.933 862.667 594.8 853.733 597.467 C 845.333 599.867 826.267 599.6 818.933 596.933 C 806.133 592.133 798.667 582.133 796.133 566.667 C 795.2 561.467 794.667 532 794.667 492.933 L 794.667 428 L 809.333 428 L 824 428 L 824 496.667 Z  M 1051.867 434.933 C 1052.667 438.8 1059.6 475.333 1067.333 516 C 1075.067 556.667 1081.733 591.6 1082.133 593.6 L 1082.933 597.333 L 1068.267 597.333 L 1053.6 597.333 L 1052.8 593.6 C 1052.4 591.6 1051.467 586.133 1050.667 581.333 C 1048 565.067 1050 566.667 1032.933 566.667 L 1017.867 566.667 L 1015.467 582 L 1013.067 597.333 L 999.2 597.333 C 988.8 597.333 985.6 596.933 986 595.6 C 986.667 593.6 1017.333 430.933 1017.333 429.2 C 1017.333 428.533 1024.8 428 1033.867 428 L 1050.533 428 L 1051.867 434.933 Z  M 1154.667 439.333 L 1154.667 450.533 L 1143.067 450.933 L 1131.333 451.333 L 1130.933 524.267 L 1130.667 597.333 L 1116.667 597.333 L 1102.667 597.333 L 1102.4 524.267 L 1102 451.333 L 1090.4 450.933 L 1078.667 450.533 L 1078.667 439.333 L 1078.667 428 L 1116.667 428 L 1154.667 428 L 1154.667 439.333 Z  M 1196 512.667 L 1196 597.333 L 1182 597.333 L 1168 597.333 L 1168 512.667 L 1168 428 L 1182 428 L 1196 428 L 1196 512.667 Z  M 1351.333 451.6 C 1355.467 464.667 1362.4 486.133 1366.667 499.333 L 1374.4 523.333 L 1374.533 475.6 L 1374.667 428 L 1386.667 428 L 1398.667 428 L 1398.667 512.667 L 1398.667 597.467 L 1385.733 597.067 L 1372.8 596.667 L 1356.8 545.333 L 1340.667 494.133 L 1340.267 545.733 L 1340 597.333 L 1328 597.333 L 1316 597.333 L 1316 512.667 L 1316 428 L 1329.867 428 L 1343.867 428 L 1351.333 451.6 Z  M 1572.667 832.533 C 1581.6 836.533 1588.8 843.867 1593.2 853.2 C 1596.533 860.4 1596.667 861.6 1597.067 888.933 L 1597.467 917.333 L 1554.8 917.333 L 1512 917.333 L 1512 890 C 1512 866.4 1512.4 861.733 1514.533 856 C 1523.333 832.933 1550 822.133 1572.667 832.533 Z  M 516.4 1601.467 C 519.467 1602.267 609.867 1627.467 717.2 1657.467 L 912.267 1712 L 930.533 1712 L 948.667 1712 L 1150 1646.933 L 1351.333 1581.867 L 1352 1234.267 L 1352.667 886.667 L 1371.733 901.733 L 1390.667 916.667 L 1390.4 1263.2 L 1390 1609.867 L 1374.667 1614.4 C 1366.267 1616.8 1267.733 1647.867 1155.867 1683.467 L 952.4 1748 L 930.533 1748 L 908.667 1748 L 690.4 1687.733 L 472 1627.333 L 472 1271.867 L 472 916.533 L 491.067 901.6 L 510 886.667 L 510.4 1243.333 L 510.667 1599.867 L 516.4 1601.467 Z  M 733.067 994.667 L 909.333 1096.4 L 909.333 1384.267 C 909.333 1657.867 909.2 1672.133 907.067 1671.467 C 865.467 1659.2 553.067 1564.933 551.067 1564 L 548 1562.667 L 548 1225.2 L 548 887.733 L 552.4 890.267 C 554.667 891.6 636 938.667 733.067 994.667 Z  M 1313.333 1225.733 L 1313.333 1563.467 L 1134.4 1617.333 C 1035.867 1646.933 954 1671.333 952.267 1671.733 L 949.333 1672.267 L 949.6 1385.2 L 950 1098 L 1131.333 993.2 C 1231.067 935.467 1312.8 888.133 1313.067 888.133 C 1313.2 888 1313.333 1040 1313.333 1225.733 Z  M 1597.333 1251.067 L 1597.333 1551.333 L 1576.667 1624 C 1565.2 1664 1555.6 1697.6 1555.2 1698.667 C 1554.667 1699.733 1544.8 1667.333 1533.2 1626.667 L 1512 1552.667 L 1512 1251.6 L 1512 950.667 L 1554.667 950.667 L 1597.333 950.667 L 1597.333 1251.067 Z " fill="rgb(0,0,0)"/><path d=" M 645.467 214.133 C 638.933 218.8 638.667 221.6 638.667 276.133 C 638.667 320.8 638.933 327.467 640.933 331.6 C 645.733 341.867 660.133 342.133 665.467 332 C 667.867 327.733 668 323.467 668 275.6 C 668 220 667.867 218.8 661.067 214.133 C 657.2 211.333 649.467 211.467 645.467 214.133 Z " fill="rgb(0,0,0)"/><path d=" M 850.267 242.667 C 848.667 248.667 840 304.4 840.533 304.933 C 840.8 305.2 845.733 305.333 851.6 305.067 L 862.133 304.667 L 856.533 272 C 853.067 250.8 850.8 240.533 850.267 242.667 Z " fill="rgb(0,0,0)"/><path d=" M 1249.333 451.733 C 1246.133 453.2 1244.133 455.467 1243.067 458.667 C 1240.8 465.2 1240.8 560.133 1243.067 566.667 C 1246.667 577.333 1261.2 578.933 1267.6 569.467 C 1270.667 564.933 1270.667 564.933 1270.667 513.067 C 1270.667 456.133 1270.533 455.467 1262.667 451.333 C 1257.733 448.8 1255.067 448.8 1249.333 451.733 Z " fill="rgb(0,0,0)"/><path d=" M 722.667 512.667 L 722.667 574.667 L 730.133 574.667 C 734.267 574.667 739.467 573.733 741.867 572.667 C 750.133 568.8 750 569.467 750.4 514.667 C 750.667 469.067 750.533 464.267 748.4 460 C 745.333 454 738.667 450.667 729.733 450.667 L 722.667 450.667 L 722.667 512.667 Z " fill="rgb(0,0,0)"/><path d=" M 1027.6 507.733 C 1024.8 524.4 1022.667 539.333 1022.667 540.933 C 1022.667 543.867 1023.2 544 1033.333 544 C 1040.933 544 1044 543.467 1044 542.267 C 1044 539.733 1033.467 478.4 1033.067 477.867 C 1032.8 477.6 1030.4 491.067 1027.6 507.733 Z " fill="rgb(0,0,0)"/></g></g></svg>